<svg width="96" height="96" xmlns="http://www.w3.org/2000/svg" xmlns:xlink="http://www.w3.org/1999/xlink" xml:space="preserve" overflow="hidden"><g transform="translate(-51 -423)"><path d="M136 466.3 142 466.3 142 475.6 136 475.6Z" stroke="#4472C4" fill="#ED7D31"/><path d="M116 466.3 122 466.3 122 475.6 116 475.6Z" stroke="#4472C4" fill="#ED7D31"/><path d="M56 466.3 62 466.3 62 475.6 56 475.6Z" stroke="#4472C4" fill="#ED7D31"/><path d="M126 461.7 132 461.7 132 480.4 126 480.4Z" stroke="#4472C4" fill="#ED7D31"/><path d="M106 461.7 112 461.7 112 480.4 106 480.4Z" stroke="#4472C4" fill="#ED7D31"/><path d="M66 461.7 72 461.7 72 480.4 66 480.4Z" stroke="#4472C4" fill="#ED7D31"/><path d="M96 457 102 457 102 485 96 485Z" stroke="#4472C4" fill="#ED7D31"/><path d="M76 452.3 82 452.3 82 489.6 76 489.6Z" stroke="#4472C4" fill="#ED7D31"/><path d="M86 443 92 443 92 499 86 499Z" stroke="#4472C4" fill="#ED7D31"/></g></svg>